PathFileType	4	(X/Y/Z)	C:\Users\Basilio\Documents\Thesis Gigler\squatting_fais\c3dfiles\077\SJ_pre5\markers_experimental.trc
DataRate	CameraRate	NumFrames	NumMarkers	Units	OrigDataRate	OrigDataStartFrame	OrigNumFrames
200.000000	200.000000	4	60	mm	200.000000	339	1356
Frame#	Time	FHD			LBHD			RBHD			C7			T10			CLAV			LSHO			LUUPA			LMUPA			LDUPA			LLEP			LMEP			LRAD			LUL			LRFIN			RSHO			RUPA1			RMUPA			RDUPA			RLEP			RMEP			RRAD			RUL			RUFIN			LASI			RASI			USACR			LSACR			RSACR			LTHI2			LTHI3			LTHI4			LLFC			LMFC			LTIB1			LTIB2			LTIB3			LTIB4			LLMAL			LHEE			LMT1			LMT2			LMT5			RTHI			RTHI2			RTHI3			RTHI4			RLFC			RMFC			RTIB1			RTIB2			RTIB3			RTIB4			RLMAL			RMMAL			RHEE			RMT1			RMT2			RMT5			LTHI1			
		X1	Y1	Z1	X2	Y2	Z2	X3	Y3	Z3	X4	Y4	Z4	X5	Y5	Z5	X6	Y6	Z6	X7	Y7	Z7	X8	Y8	Z8	X9	Y9	Z9	X10	Y10	Z10	X11	Y11	Z11	X12	Y12	Z12	X13	Y13	Z13	X14	Y14	Z14	X15	Y15	Z15	X16	Y16	Z16	X17	Y17	Z17	X18	Y18	Z18	X19	Y19	Z19	X20	Y20	Z20	X21	Y21	Z21	X22	Y22	Z22	X23	Y23	Z23	X24	Y24	Z24	X25	Y25	Z25	X26	Y26	Z26	X27	Y27	Z27	X28	Y28	Z28	X29	Y29	Z29	X30	Y30	Z30	X31	Y31	Z31	X32	Y32	Z32	X33	Y33	Z33	X34	Y34	Z34	X35	Y35	Z35	X36	Y36	Z36	X37	Y37	Z37	X38	Y38	Z38	X39	Y39	Z39	X40	Y40	Z40	X41	Y41	Z41	X42	Y42	Z42	X43	Y43	Z43	X44	Y44	Z44	X45	Y45	Z45	X46	Y46	Z46	X47	Y47	Z47	X48	Y48	Z48	X49	Y49	Z49	X50	Y50	Z50	X51	Y51	Z51	X52	Y52	Z52	X53	Y53	Z53	X54	Y54	Z54	X55	Y55	Z55	X56	Y56	Z56	X57	Y57	Z57	X58	Y58	Z58	X59	Y59	Z59	X60	Y60	Z60	

340	1.695	28.48190498352051	1217.29541015625	-916.4725341796877	-108.1171188354492	1104.764770507813	-986.724304199219	-118.6179504394532	1105.105224609375	-841.1961059570315	-168.8226776123047	1052.700317382813	-912.4971313476565	-407.6979370117189	854.009948730469	-924.9035644531252	-59.60249710083009	899.4530029296877	-907.9707031250002	-46.85116958618165	959.9031982421877	-1082.921752929688	-122.9135208129883	905.0272216796877	-1275.128295898438	-132.8512268066407	857.7984008789065	-1281.061645507813	-154.7956237792969	881.7576293945315	-1331.508056640625	-198.0173645019532	839.1768798828127	-1372.9765625	-262.4487915039063	898.6692504882815	-1365.552001953125	-413.6881408691407	756.9743041992189	-1151.378662109375	-393.1213989257814	688.3961181640626	-1191.185791015625	nan	nan	nan	-24.00598144531251	938.4028930664065	-740.2290649414064	-138.258544921875	865.208923339844	-547.1409912109376	-160.8629455566407	821.7808837890627	-558.2791748046876	-186.7403259277344	836.1418457031252	-505.6412658691407	-244.4980773925782	795.6690673828127	-483.7854003906251	-300.4963378906251	865.7190551757815	-485.6492309570314	-475.085174560547	739.3405151367189	-679.9492187500001	-446.428436279297	666.8707275390626	-661.7985229492189	nan	nan	nan	nan	nan	nan	nan	nan	nan	-511.0175781250001	788.4926757812502	-930.0317993164065	-534.1553344726564	777.4570922851565	-961.2376098632815	-545.4449462890626	773.6842041015627	-907.4756469726565	-331.2861328125001	575.5005493164064	-1209.081665039063	-304.1660766601563	613.4051513671876	-1192.594970703125	-300.9279479980469	526.1531372070314	-1227.166625976563	-164.7849273681641	472.973602294922	-1256.53076171875	-122.6196441650391	430.5441284179689	-1135.935668945313	-209.4792785644532	262.7393188476563	-1196.927978515625	-279.5023803710938	252.9720916748047	-1255.897338867188	-248.9927673339844	231.2002868652344	-1229.487426757813	-292.3168334960938	166.7202758789063	-1194.270141601563	-412.7150878906251	105.1892242431641	-1220.516235351563	-466.7532958984376	50.87524795532228	-1163.077514648438	-253.3035888671876	55.7151222229004	-1206.001831054688	-264.1650695800782	59.33473205566408	-1247.315551757813	-363.7599487304688	96.26709747314456	-1145.926147460938	-340.3401489257813	535.7745361328126	-627.9099121093751	-273.0739135742188	553.8438110351564	-611.0133666992189	-257.0967712402344	581.8632202148439	-623.1241455078126	-217.0208892822266	494.0704650878907	-596.6257324218751	-181.1240692138672	458.9136047363282	-583.7677612304689	-124.6920928955078	437.439666748047	-698.4776611328126	-183.813461303711	325.7105102539063	-593.4360351562501	-286.7473449707032	290.0771484375001	-585.2315673828126	-247.4881134033204	265.4208679199219	-595.4846191406251	-252.8337097167969	221.8222656250001	-634.9365844726564	-405.0758666992189	98.27857971191409	-626.4912109375001	-355.8979492187501	87.1386184692383	-703.3822021484376	-458.4651489257814	47.4227523803711	-692.2627563476564	-248.7538604736329	59.01259613037111	-605.0640869140626	-264.5835876464844	61.26465606689455	-571.0317993164064	-295.7304992675782	42.42650222778321	-529.5742797851564	-410.546600341797	579.5635986328126	-1181.7958984375	
341	1.7	29.56441879272462	1214.489501953125	-916.3319091796877	-107.0378112792969	1102.0830078125	-986.610290527344	-117.7917938232422	1103.166381835938	-841.586853027344	-167.8287353515625	1050.246337890625	-912.371765136719	-407.1457824707032	851.9092407226565	-924.9421386718752	-59.03768157958986	896.898376464844	-907.9827270507815	-45.94358825683594	957.4299316406252	-1082.759399414063	-122.2878799438477	902.623474121094	-1275.20751953125	-131.9836883544922	855.3068847656252	-1280.91162109375	-153.8398895263672	879.0859375000002	-1331.39892578125	-197.4070129394532	836.7749023437502	-1372.984252929688	-261.6816711425782	896.595153808594	-1365.572998046875	-413.6431579589845	755.4307250976564	-1151.389404296875	-393.0222167968751	686.4760742187501	-1191.193725585938	nan	nan	nan	-23.09459114074707	935.687927246094	-740.0918579101564	-137.3678436279297	862.6136474609377	-547.0276489257814	-160.0756988525391	819.1865234375002	-558.1711425781251	-186.1026763916016	833.4187011718752	-505.591766357422	-243.8355102539063	793.2640380859377	-483.6944885253907	-299.7776489257813	863.4378051757815	-485.5461425781251	-474.5528564453126	738.0780029296876	-680.0728759765626	-446.2720336914064	665.4468994140626	-661.9721069335939	nan	nan	nan	nan	nan	nan	nan	nan	nan	-510.4437866210939	786.3568115234377	-930.1192626953127	-533.7536621093751	775.6101684570315	-961.2205200195315	-545.1224975585939	771.7026367187502	-907.575866699219	-329.7627563476563	573.9885253906251	-1208.597778320313	-304.3460388183594	612.5062255859376	-1192.448120117188	-300.5651855468751	525.1398925781251	-1227.117797851563	-164.1503143310547	472.642059326172	-1256.638061523438	-121.878402709961	430.1398010253907	-1135.952026367188	-208.9923858642579	262.6505432128907	-1196.647583007813	-279.1521606445313	252.8209533691407	-1255.8505859375	-248.7614746093751	231.0716705322266	-1229.431274414063	-292.0563659667969	166.61669921875	-1194.187133789063	-412.6808166503907	105.3325500488282	-1220.348022460938	-466.663787841797	50.91252517700197	-1162.850341796875	-253.3159484863282	55.76448440551759	-1205.967163085938	-264.1028747558594	59.25460815429689	-1247.271484375	-363.6713867187501	96.25137329101565	-1145.843139648438	-340.1222229003907	534.7099609375001	-627.7650146484376	-272.7334594726563	553.2539672851564	-610.7393188476564	-256.7951660156251	581.2358398437501	-623.0195922851564	-216.6775817871094	493.603240966797	-596.1472167968751	-180.6146850585938	458.5686340332032	-583.3229370117189	-124.1415328979492	436.8460998535157	-697.8759765625001	-183.371322631836	325.4993286132813	-593.0226440429689	-286.4353332519532	289.9731140136719	-585.0178833007814	-247.2168121337891	265.1061706542969	-595.3366088867189	-252.5731201171876	221.6228942871094	-634.7497558593751	-405.0156860351564	98.32102203369143	-626.5247192382814	-355.7984313964844	87.11756896972658	-703.4152221679689	-458.4712829589845	47.47175598144532	-692.3726196289064	-248.7800750732422	58.96490859985353	-605.1033935546876	-264.5869140625001	61.26276779174806	-570.9921875000001	-295.7498779296876	42.34332275390626	-529.5383300781251	-410.6434326171876	578.3330078125001	-1181.803466796875	
342	1.705	30.41819953918458	1211.917602539063	-916.3389282226565	-106.1948852539063	1099.899169921875	-986.5606689453127	-116.8969345092774	1100.618408203125	-841.4366455078127	-167.2769622802735	1047.939453125	-912.1756591796877	-406.3990783691407	849.9971923828127	-924.9573364257815	-58.31063461303712	894.3713378906252	-907.8562622070315	-44.93024063110352	954.7720336914065	-1082.554077148438	-121.1459579467774	900.060241699219	-1274.982666015625	-131.2299499511719	852.930114746094	-1280.812866210938	-152.9944152832032	876.943054199219	-1331.329223632813	-196.3593292236329	834.2592773437502	-1372.71484375	-260.6210632324219	894.6131591796877	-1365.672485351563	-413.2733459472657	754.1598510742189	-1151.294799804688	-392.6868286132814	684.9149169921876	-1191.245849609375	nan	nan	nan	-22.17868423461914	932.7990722656252	-740.0573730468751	-136.6330871582032	860.0112915039065	-546.9340820312501	-159.3979949951172	816.7375488281252	-558.0458984375001	-185.2961730957032	831.0015258789065	-505.3893127441407	-243.2397766113282	790.9216308593752	-483.657928466797	-298.9476318359376	861.3496704101565	-485.3131408691407	-474.0490112304689	736.5635986328126	-680.0750122070314	-445.9887084960939	663.9652709960939	-661.9896240234376	nan	nan	nan	nan	nan	nan	nan	nan	nan	-509.8163452148439	784.5484619140627	-930.1563720703127	-533.2915039062501	773.7718505859377	-961.214538574219	-544.6935424804689	770.1170043945315	-907.5650634765627	-330.0205383300782	573.0415649414064	-1208.6474609375	-304.4861755371094	611.2391967773439	-1191.98681640625	-299.8885803222657	524.1336669921876	-1227.109619140625	-163.6315307617188	472.3262023925782	-1256.7529296875	-121.1855850219727	429.4930725097657	-1136.03955078125	-208.5803375244141	262.2658386230469	-1196.728881835938	-278.6734008789063	252.507553100586	-1255.908447265625	-248.5067138671876	230.995590209961	-1229.430786132813	-291.7276000976563	166.2958068847657	-1194.005249023438	-412.596160888672	105.4338531494141	-1220.1865234375	-466.5520019531251	51.07815551757814	-1162.6845703125	-253.2685089111329	55.66881179809572	-1206.011352539063	-264.0499572753907	59.28589630126955	-1247.244506835938	-363.4852905273438	96.29348754882815	-1145.717651367188	-339.6857910156251	533.9281616210939	-627.5514526367189	-272.4293823242188	552.7056884765626	-610.5276489257814	-256.6421508789063	580.4635620117189	-622.8527221679689	-216.1933593750001	493.2282714843751	-595.5494384765626	-180.1176452636719	458.2106323242189	-582.7938842773439	-123.2393493652344	436.4591369628907	-697.2777709960939	-183.0540771484375	325.1522827148438	-592.7084350585939	-286.0881042480469	289.8770751953126	-584.7741699218751	-246.828598022461	264.8848571777344	-595.1312255859376	-252.3380279541016	221.4458160400391	-634.5498046875001	-404.8885498046876	98.35870361328128	-626.6040039062501	-355.5246887207032	87.10020446777345	-703.4239501953126	-458.4151916503907	47.57581329345704	-692.4586181640626	-248.7666473388672	58.94855117797853	-605.0751342773439	-264.5090942382813	61.18813705444337	-571.0504760742189	-295.7469787597657	42.31819152832032	-529.6054077148439	-410.2847900390626	577.0371093750001	-1181.658813476563	
343	1.71	31.54240608215333	1209.205810546875	-916.1687622070315	-105.3988113403321	1097.24365234375	-986.5501098632815	-115.8662033081055	1097.659057617188	-840.5087890625002	-166.3863830566407	1045.721923828125	-912.0037231445315	-405.8742065429689	848.2053833007815	-924.8925781250002	-57.57656478881837	891.8817138671877	-907.7574462890627	-44.10544967651368	952.223327636719	-1082.467163085938	-120.5584793090821	897.5080566406252	-1274.729736328125	-130.4618530273438	850.5013427734377	-1280.557495117188	-152.0118103027344	874.3883056640627	-1331.187866210938	-195.6308593750001	832.0559082031252	-1372.7578125	-259.8038024902344	892.511901855469	-1365.666259765625	-412.6305236816407	752.1153564453126	-1151.433959960938	-392.6453857421876	683.2377929687501	-1191.169067382813	nan	nan	nan	-21.35975646972657	930.0567626953127	-739.9491577148439	-135.7740936279297	857.3870239257815	-546.8692016601564	-158.7403869628907	814.2229003906252	-557.9346313476564	-184.5258941650391	828.6671142578127	-505.289031982422	-242.5937805175782	788.6523437500002	-483.5039978027345	-298.0601806640626	859.125671386719	-485.0473632812501	-473.4432373046876	735.3697509765626	-680.1757202148439	-445.7503967285157	662.6035766601564	-662.0897216796876	nan	nan	nan	nan	nan	nan	nan	nan	nan	-509.4837036132814	782.6860351562502	-930.110046386719	-532.7853393554689	771.8880615234377	-961.212829589844	-544.1320800781251	768.0053710937502	-907.6860961914065	-330.4378051757813	572.2243041992189	-1208.804809570313	-304.0796508789063	610.2438354492189	-1191.657836914063	-299.7103271484376	523.3927001953126	-1227.077880859375	-163.2149353027344	471.9398803710939	-1256.938354492188	-120.497314453125	429.0708923339845	-1136.133422851563	-208.4410858154297	261.9728088378907	-1197.110717773438	-278.4174499511719	252.3487091064454	-1255.828979492188	-247.9481353759766	230.6864471435547	-1229.475952148438	-291.5151672363282	166.3285522460938	-1193.93896484375	-412.4163208007814	105.4773178100586	-1220.069702148438	-466.4761352539064	51.17118453979494	-1162.467407226563	-253.150131225586	55.6095314025879	-1206.027709960938	-264.0854187011719	59.29702377319337	-1247.269897460938	-363.3501892089844	96.364860534668	-1145.630615234375	-339.4883422851563	533.0355834960939	-627.3367309570314	-272.1948852539063	552.0698852539064	-610.2227172851564	-256.4237365722657	579.8017578125001	-622.6336059570314	-215.6995544433594	492.805633544922	-595.1106567382814	-179.538330078125	457.8373107910157	-582.3485107421876	-123.1272811889649	436.2901000976564	-696.9337158203126	-182.6918487548828	324.8298950195313	-592.4139404296876	-285.7523498535157	289.6512756347657	-584.6185913085939	-246.4712829589844	264.7091979980469	-594.8563842773439	-252.1193084716797	221.2783813476563	-634.3386840820314	-404.8389587402345	98.40045166015628	-626.6798095703126	-355.4929809570313	87.13815307617189	-703.5170288085939	-458.3299560546876	47.59060668945313	-692.5456542968751	-248.7304687500001	58.91639709472658	-605.0669555664064	-264.4560241699219	61.27911758422853	-570.9694824218751	-295.7691345214844	42.33993530273438	-529.5967407226564	-410.1238403320314	575.7161865234376	-1181.579833984375	
